inDegrees=yes
name=ik_S40_A01_T01
DataType=double
version=3
OpenSimVersion=4.3-2021-08-27-4bc7ad9
endheader
time	pelvis_tilt	pelvis_list	pelvis_rotation	pelvis_tx	pelvis_ty	pelvis_tz	hip_flexion_r	hip_adduction_r	hip_rotation_r	knee_angle_r	knee_angle_r_beta	ankle_angle_r	subtalar_angle_r	mtp_angle_r	hip_flexion_l	hip_adduction_l	hip_rotation_l	knee_angle_l	knee_angle_l_beta	ankle_angle_l	subtalar_angle_l	mtp_angle_l	lumbar_extension	lumbar_bending	lumbar_rotation	arm_flex_r	arm_add_r	arm_rot_r	elbow_flex_r	pro_sup_r	wrist_flex_r	wrist_dev_r	arm_flex_l	arm_add_l	arm_rot_l	elbow_flex_l	pro_sup_l	wrist_flex_l	wrist_dev_l
9.079999999999895	3.304127784941613	0.04465822555736137	92.99796306616057	0	0.9399999999999999	0	9.269870234278658	2.858970563405223	-9.748172902353243	2.432178680468014	0.04244952597097795	0	0	0	23.17975088738485	-6.322544989552283	-4.45340891954652	53.94156294134201	0.941457876998175	0	0	0	0	0	0	31.17658021858557	-31.17658021858557	4.332797600349331	75.51232014904238	85.66720264246742	0	0	31.17658021858557	-31.17658021858557	4.332797600349331	75.51232014904238	85.66720264234314	0	0
9.099999999999895	3.161028976687883	0.07114235734390061	93.18289022849052	0	0.9399999999999999	0	5.720851092024779	2.951050882851237	-8.278529600610973	-0.3046421425993781	-0.005317008428689225	0	0	0	24.86546885133243	-5.706403558810002	-3.151698011741833	50.45831865566914	0.8806637955619054	0	0	0	0	0	0	31.19100493172668	-31.19100493172668	4.333858761496529	75.5274112502328	85.66614148137269	0	0	31.19100493172668	-31.19100493172668	4.333858761496529	75.5274112502328	85.66614148124854	0	0
9.119999999999894	3.02323863883764	0.2274792666126107	93.3914770517013	0	0.9399999999999999	0	4.415000594752848	2.927677361403824	-8.093703036801555	-0.5584211051946818	-0.009746286898272808	0	0	0	25.9923145585547	-5.057680253605982	-2.27413746105454	45.51013664966845	0.7943017275692555	0	0	0	0	0	0	31.25633129897317	-31.25633129897317	4.339239152416714	75.60429493936262	85.6607610907255	0	0	31.25633129897317	-31.25633129897317	4.339239152416714	75.60429493936262	85.66076109060241	0	0
9.139999999999894	2.938201249823579	0.4199692013799922	93.56016826490226	0	0.9399999999999999	0	3.051473958202113	2.937596025065396	-7.840972240034978	0.09014719662211108	0.001573365392498549	0	0	0	26.47284763122794	-4.452198596835784	-1.675727314340718	39.59476945123254	0.6910590934920763	0	0	0	0	0	0	31.39733428846591	-31.39733428846591	4.351024300653314	75.77276396951243	85.64897594308812	0	0	31.39733428846591	-31.39733428846591	4.351024300653314	75.77276396951243	85.64897594296725	0	0
9.159999999999894	2.913041322088376	0.4706428066224595	93.63750383719466	0	0.9399999999999999	0	1.788390044663555	3.074095755058978	-7.60597453039746	-0.1277328700193862	-0.002229359144860242	0	0	0	26.29873575858005	-4.028576155956936	-1.832290388122155	32.05067381174494	0.5593897854976705	0	0	0	0	0	0	31.40366159276009	-31.40366159276009	4.351616942110573	75.78126551174886	85.64838330166157	0	0	31.40366159276009	-31.40366159276009	4.351616942110573	75.78126551174886	85.64838330154075	0	0
9.179999999999893	2.895880542486264	0.6493252158831552	93.69724212551539	0	0.9399999999999999	0	0.4603327907750538	3.233007987954832	-7.231103645343325	-0.1726121866093314	-0.0030126509853997	0	0	0	25.62444890657175	-3.454366581162865	-3.125852817026166	24.32410187897732	0.4245356653786936	0	0	0	0	0	0	31.41153172151107	-31.41153172151107	4.352362859206585	75.79196936261572	85.64763738460418	0	0	31.41153172151107	-31.41153172151107	4.352362859206585	75.79196936261572	85.64763738448355	0	0
9.199999999999893	3.038146353278516	1.221279983826014	93.75171300574402	0	0.9399999999999999	0	-1.186395342564842	3.604730127148395	-6.797053406245178	-1.28303310589257	-0.02239315210991441	0	0	0	25.10249744198333	-3.10533933477412	-2.994756664690652	17.01569751359962	0.2969799461357259	0	0	0	0	0	0	31.41834276417257	-31.41834276417257	4.353004302262969	75.80117223821532	85.64699594158097	0	0	31.41834276417257	-31.41834276417257	4.353004302262969	75.80117223821532	85.64699594146042	0	0
9.219999999999892	3.105676034810842	1.493344354770301	93.77938802399522	0	0.9399999999999999	0	-2.532156576666946	3.929404397700386	-6.388964473690232	-1.237797087164285	-0.02160363464261201	0	0	0	24.52970046792971	-2.754762668482025	-6.387933890589856	4.508777216639142	0.07869300766925867	0	0	0	0	0	0	31.43569558410561	-31.43569558410561	4.354511678907236	75.82274712022986	85.64548856501388	0	0	31.43569558410561	-31.43569558410561	4.354511678907236	75.82274712022986	85.64548856489357	0	0
9.239999999999892	3.300090420492748	1.916959373327507	93.71426402577258	0	0.9399999999999999	0	-3.97670050945172	4.345445361517009	-5.880786108567794	-2.262304945244086	-0.03948466997865933	0	0	0	21.90575318180522	-1.957276390509649	-9.549457951769355	0.7028015369945062	0.01226620080863087	0	0	0	0	0	0	31.40811938076123	-31.40811938076123	4.352403335097701	75.79269097205572	85.64759690871773	0	0	31.40811938076123	-31.40811938076123	4.352403335097701	75.79269097205572	85.64759690859701	0	0
9.259999999999891	3.475798415018131	2.188318823881416	93.46692977807733	0	0.9399999999999999	0	-5.244627844081876	4.735189383361408	-5.455107529633693	-0.5666816340270222	-0.009890460324353071	0	0	0	21.64804502241706	-1.245645919629884	-9.550827805371526	-2.47939406660515	-0.04327358991667145	0	0	0	0	0	0	31.41316639908159	-31.41316639908159	4.352879326300889	75.79952033046779	85.64712091753916	0	0	31.41316639908159	-31.41316639908159	4.352879326300889	75.79952033046779	85.64712091741856	0	0
9.279999999999891	3.650329009504864	2.267003688038179	93.21190936200729	0	0.9399999999999999	0	-6.310020820425954	5.013903866159636	-5.021148535733213	-1.44612694338953	-0.02523967656394895	0	0	0	21.75777056045004	-1.332195945653945	-8.581688046522384	-4.29951516940857	-0.07504069594562132	0	0	0	0	0	0	31.41594044273277	-31.41594044273277	4.353142676815042	75.80329949078049	85.64685756703867	0	0	31.41594044273277	-31.41594044273277	4.353142676815042	75.80329949078049	85.64685756691811	0	0
9.299999999999891	3.726027479694054	2.489850666151801	93.06787551374418	0	0.9399999999999999	0	-7.557243122640997	5.096223405281863	-5.048414124257242	0.7107642420868847	0.01240517622985819	0	0	0	21.63144320320685	-1.080132602675983	-8.283930231428196	-4.384631404793782	-0.07652625449999578	0	0	0	0	0	0	31.42117212894381	-31.42117212894381	4.353638801930495	75.81041871800022	85.64636144194894	0	0	31.42117212894381	-31.42117212894381	4.353638801930495	75.81041871800022	85.64636144182852	0	0
9.31999999999989	3.738518332339001	2.922922746261636	93.08681160265061	0	0.9399999999999999	0	-9.041162003660151	4.95039145307553	-5.481692815692361	1.491970171139127	0.02603979182792105	0	0	0	21.06281316971303	-0.713139496321691	-7.494418192060957	-3.312762599686784	-0.05781861470146125	0	0	0	0	0	0	31.42428640777958	-31.42428640777958	4.353934709197917	75.8146651051037	85.64606553469686	0	0	31.42428640777958	-31.42428640777958	4.353934709197917	75.8146651051037	85.64606553457648	0	0
9.33999999999989	3.738986701610996	3.459007098973283	93.17791484942187	0	0.9399999999999999	0	-9.585957796111604	4.973988075280968	-5.58897136969513	3.242472669591042	0.0565918239902939	0	0	0	19.93334837613878	-0.6741551245850089	-6.800530367357507	-2.260526217735689	-0.039453625327142	0	0	0	0	0	0	31.42746148909272	-31.42746148909272	4.354235411402342	75.81897988662163	85.64576483250808	0	0	31.42746148909272	-31.42746148909272	4.354235411402342	75.81897988662163	85.64576483238771	0	0
9.359999999999889	3.708167523733437	4.185226569463386	93.24987621834529	0	0.9399999999999999	0	-11.21573615070025	4.873424505394589	-5.913727934210781	4.386728532482246	0.07656285628299422	0	0	0	18.41147918832409	-0.7976618531848793	-6.819602431120469	-2.118080514668598	-0.0369674788033031	0	0	0	0	0	0	31.43054190856857	-31.43054190856857	4.354527153718093	75.82316607958506	85.64547309020746	0	0	31.43054190856857	-31.43054190856857	4.354527153718093	75.82316607958506	85.64547309008711	0	0
9.379999999999889	3.710877853122965	4.190474781181949	93.24933260328498	0	0.9399999999999999	0	-11.32122896196375	4.818024327687793	-6.167018697126243	6.341204533162465	0.110674897646075	0	0	0	18.28461081841196	-1.057435510778563	-7.823168276856924	-0.2894966009638978	-0.005052668860152207	0	0	0	0	0	0	31.43325945114833	-31.43325945114833	4.354784708844835	75.82686176619622	85.64521553509401	0	0	31.43325945114833	-31.43325945114833	4.354784708844835	75.82686176619622	85.64521553497377	0	0
